<svg width="20" height="23" viewBox="0 0 20 23" fill="none" xmlns="http://www.w3.org/2000/svg">
<path d="M5.1875 5.5625C5.1875 2.94141 7.33594 0.75 10 0.75C12.6211 0.75 14.8125 2.94141 14.8125 5.5625V7.625H17.5625C18.6797 7.625 19.625 8.57031 19.625 9.6875V18.625C19.625 20.9023 17.7773 22.75 15.5 22.75H4.5C2.17969 22.75 0.375 20.9023 0.375 18.625V9.6875C0.375 8.57031 1.27734 7.625 2.4375 7.625H5.1875V5.5625ZM7.25 7.625H12.75V5.5625C12.75 4.05859 11.5039 2.8125 10 2.8125C8.45312 2.8125 7.25 4.05859 7.25 5.5625V7.625ZM6.21875 11.75C6.77734 11.75 7.25 11.3203 7.25 10.7188C7.25 10.1602 6.77734 9.6875 6.21875 9.6875C5.61719 9.6875 5.1875 10.1602 5.1875 10.7188C5.1875 11.3203 5.61719 11.75 6.21875 11.75ZM13.7812 9.6875C13.1797 9.6875 12.75 10.1602 12.75 10.7188C12.75 11.3203 13.1797 11.75 13.7812 11.75C14.3398 11.75 14.8125 11.3203 14.8125 10.7188C14.8125 10.1602 14.3398 9.6875 13.7812 9.6875Z" fill="white"/>
</svg>
