<svg width="61" height="51" viewBox="0 0 61 51" fill="none" xmlns="http://www.w3.org/2000/svg">
<path d="M29.6785 3.8312C41.0648 2.93443 48.9482 15.5259 43.3723 25.8806C38.2552 35.3822 25.1291 36.1205 19.0666 27.2149C12.6519 17.7914 18.5967 4.70385 29.6785 3.8312ZM37.1386 21.9055C37.2153 21.1419 37.4686 20.4173 37.5675 19.6561C38.2718 14.2353 35.4811 8.64227 31.0894 5.74874C25.0014 9.75835 22.5006 16.4261 25.5757 23.4739C25.9424 24.3156 26.449 25.078 26.8156 25.9174C26.7023 26.0345 25.3669 24.9264 25.2036 24.7749C22.8928 22.6196 21.6307 19.4218 21.1541 16.2906C20.8875 16.2527 20.7997 16.4904 20.7064 16.6856C19.8187 18.5274 19.8843 22.1891 20.3642 24.156C21.8596 30.2806 27.5755 33.0456 33.3703 31.941C41.3236 30.4253 42.9101 20.6791 39.4161 14.2238C39.3295 14.0631 38.4907 12.4923 38.2485 12.7369C39.0428 15.4088 38.5862 18.7593 37.4908 21.2946C37.4164 21.4668 37.3064 21.8434 37.1398 21.9055H37.1386Z" fill="white"/>
<path d="M45.7953 21.7919C46.7096 17.5698 45.6864 13.1239 43.3734 9.5839C46.5774 6.98317 49.0293 3.63953 51.2313 0.129395C51.6556 1.62783 52.0623 3.14464 52.31 4.69016C52.8877 8.2864 53.2865 15.3136 51.008 18.2932C49.797 19.8766 47.4718 20.8205 45.7953 21.7919Z" fill="white"/>
<path d="M35.4722 35.7761L34.4545 36.1562C29.593 37.3836 18.6755 36.3422 14.8271 32.7391C11.8442 29.9466 14.3005 27.1024 16.9935 25.5764C17.1113 25.5845 17.5412 26.8452 17.6534 27.0691C21.0974 33.9367 28.3964 36.0678 35.4722 35.7761Z" fill="white"/>
<path d="M6.00504 40.8179C7.81258 41.0693 9.04242 43.2808 7.50595 44.6598C7.30709 44.839 7.04157 44.8631 6.94936 45.0571C9.15018 45.4441 9.2235 48.4524 7.3793 49.4571C7.17155 49.5708 6.41277 49.8716 6.22724 49.8716H0.843506V40.8167C2.44996 40.9775 4.44636 40.5997 6.00504 40.8167V40.8179ZM3.17431 44.3716H4.78409C5.37957 44.3716 6.03171 43.7964 5.75508 43.1407C5.71397 43.0431 5.38068 42.6516 5.33846 42.6516H3.17431V44.3705V44.3716ZM3.17431 48.0391H5.56066C5.94727 48.0391 6.26501 47.4317 6.26612 47.0654C6.26612 46.7462 5.8384 46.0905 5.56066 46.0905H3.17431V48.0391Z" fill="white"/>
<path d="M17.578 40.6217C24.2027 39.795 24.4249 49.594 18.9878 50.1015C12.4331 50.7135 12.2409 41.2877 17.578 40.6217ZM17.7946 42.5646C15.8349 42.9825 15.776 47.8292 17.8902 48.1438C20.1165 48.4756 20.4765 46.2561 20.2376 44.4591C20.0599 43.1191 19.1333 42.2798 17.7946 42.5646Z" fill="white"/>
<path d="M12.4976 40.8179H10.0557V49.8728H12.4976V40.8179Z" fill="white"/>
<path d="M47.4584 43.1098H46.5719C46.8085 40.9167 43.1457 40.8753 43.1457 42.8239C43.1457 44.537 46.823 44.7127 47.5129 46.5499C49.0227 50.571 41.9514 51.6021 42.0203 47.2365H42.9079C42.6813 49.8901 46.9863 50.0658 46.7985 47.403C46.6519 45.3259 42.6146 45.5383 42.3502 43.2843C41.9536 39.9051 47.4684 39.6548 47.4573 43.1087L47.4584 43.1098Z" fill="white"/>
<path d="M54.3398 43.11L53.5566 43.0606C53.3288 41.6494 52.1001 40.9892 50.8391 41.615C50.4303 41.8182 50.027 42.3487 50.027 42.8241C50.027 44.6188 53.9487 44.6612 54.4864 46.7992C55.1052 49.2599 52.6333 50.6573 50.5992 49.8972C49.4304 49.4597 49.0038 48.4447 48.9016 47.2379H49.7893C49.5482 49.8053 53.7376 50.0924 53.681 47.5215C53.6288 45.1607 49.3782 45.7314 49.2282 43.0572C49.0505 39.8697 54.4031 39.7732 54.3387 43.11H54.3398Z" fill="white"/>
<path d="M29.1464 43.111L28.3798 43.0995C28.3487 40.1646 23.5693 41.5517 25.2102 43.6794C26.2123 44.978 29.4419 44.8414 29.4352 47.5053C29.4252 51.0567 23.5749 50.958 23.8182 47.2377L24.5914 47.2435C24.487 49.8844 28.672 49.9877 28.5964 47.5294C28.5275 45.2467 24.0604 45.6428 24.0637 42.9411C24.067 39.8454 29.3386 39.842 29.1464 43.1133V43.111Z" fill="white"/>
<path d="M31.8094 40.8179V47.5235C31.8094 47.9047 32.3204 48.7292 32.6415 48.9565C33.4481 49.5295 35.3167 49.4238 35.9 48.5386C35.9811 48.4145 36.2488 47.7382 36.2488 47.6383V40.819H37.0254V47.9828C37.0254 48.0264 36.7532 48.6844 36.6965 48.7889C35.8489 50.3401 33.0392 50.4802 31.8161 49.3504C31.6061 49.1563 31.0328 48.2193 31.0328 47.9817V40.8179H31.8094Z" fill="white"/>
<path d="M60.8889 40.8179V41.5057H57.115V44.8298H60.6667V45.5176H57.115V49.185H61V49.8728H56.2273V40.8179H60.8889Z" fill="white"/>
<path d="M40.1339 40.8179H39.2462V49.8728H40.1339V40.8179Z" fill="white"/>
</svg>
