<svg width="159" height="24" viewBox="0 0 159 24" fill="none" xmlns="http://www.w3.org/2000/svg">
<path d="M92.5364 1.03784L97.804 17.5478C99.1306 11.9465 101.128 6.52745 102.874 1.0496L107.883 1.1168L109.353 22.6603H106.15C106.218 22.026 106.094 21.3943 106.062 20.7778C105.795 15.6124 105.584 10.4151 105.053 5.27076C105.044 5.17752 104.96 4.64074 104.928 4.64074L99.5345 22.3259L96.0743 22.4141L90.4727 4.64158L89.292 22.6603H86.1733L87.6054 1.03784H92.5364Z" fill="white"/>
<path d="M18.487 21.8218C18.0038 21.8949 17.5585 22.1074 17.0896 22.2343C12.3348 23.517 5.88401 23.4792 2.42881 19.4765C-0.512798 16.0684 -0.737129 10.0538 1.50871 6.24008C4.72525 0.779027 12.1214 -0.118967 17.7196 1.79967L16.9209 4.72046C13.152 3.29828 7.71998 3.38145 5.25065 7.02803C3.24685 9.98746 3.43914 14.9798 5.84521 17.6712C8.02274 20.1065 11.9561 20.5996 14.9466 19.5588V13.776H11.0689V10.9266H18.4862V21.8218H18.487Z" fill="white"/>
<path d="M148.548 7.15514C148.677 10.0868 148.375 13.1639 148.548 16.0796C148.677 18.2377 149.436 20.3856 152.045 20.1437C153.496 20.0093 155.207 18.3973 155.207 16.918V7.1543H158.789L159 22.6588H155.797L155.627 20.3126C153.838 22.9444 149.498 24.0977 146.906 21.9867C143.535 19.2415 145.289 11.3242 144.835 7.44411L144.966 7.15514H148.548Z" fill="white"/>
<path d="M39.3911 7.23901V16.6675C39.3911 17.0329 39.6787 18.0385 39.8321 18.4072C41.2119 21.7212 46.0493 19.9378 46.0493 16.7507V7.23901H49.674L49.8427 22.7435H46.6397L46.471 20.3973C46.277 20.3494 46.3327 20.4334 46.2787 20.5023C42.9433 24.7948 36.2024 23.754 35.7773 17.9141C35.5699 14.3675 35.7352 10.7949 35.6829 7.23901H39.3919H39.3911Z" fill="white"/>
<path d="M142.732 22.7434H139.444L139.233 21.0667C137.391 22.7493 134.683 23.6255 132.257 22.7233C129.68 21.7648 128.8 18.8364 129.82 16.4012C131.172 13.1704 135.796 12.6664 138.855 12.6874C139.23 8.35032 133.804 8.91567 131.269 10.4244L130.599 8.08572C133.715 6.51318 139.435 5.87223 141.567 9.27688C143.209 11.8986 142.429 17.6806 142.559 20.8618C142.583 21.4657 142.738 22.1311 142.731 22.7443L142.732 22.7434ZM138.939 14.9496C136.793 14.8757 133.032 15.2335 133.032 18.0922C133.032 21.1331 136.96 21.2003 138.42 19.0843C138.528 18.9263 138.939 18.0687 138.939 17.925V14.9496Z" fill="white"/>
<path d="M33.3223 22.7434H30.0349L29.7406 21.0675C27.9721 23.0105 24.3204 23.8102 22.0341 22.3595C19.8473 20.9709 19.4163 17.9972 20.6949 15.8459C22.3394 13.0805 26.5502 12.7571 29.4446 12.6873C29.6689 8.74255 25.4699 8.95591 22.7864 9.96479C22.5199 10.0648 22.2584 10.2622 21.9978 10.3554C21.9093 10.3873 21.9135 10.4781 21.8174 10.3394C21.7575 10.2538 21.2144 8.49978 21.1966 8.34857C21.1595 8.0218 22.013 7.72107 22.2812 7.61774C24.6265 6.70967 28.2125 6.4291 30.4575 7.69839C32.4014 8.79715 33.0272 10.8771 33.1528 12.9805C33.3451 16.1936 32.8973 19.5353 33.3223 22.7434ZM29.5289 17.9241C29.6504 17.0698 29.4387 15.9593 29.5289 15.0747C29.4547 14.9546 29.3603 14.9596 29.238 14.9445C28.6434 14.8723 26.9643 15.1041 26.3402 15.257C21.9439 16.3297 23.2738 21.6144 27.2139 20.4005C28.2023 20.0964 29.3797 18.9691 29.5281 17.9241H29.5289Z" fill="white"/>
<path d="M63.8356 2.71387V7.23912H67.629V9.83734H63.8356V18.0083C63.8356 18.0512 63.9503 18.5334 63.9773 18.6216C64.4707 20.2722 65.9929 20.3621 67.4595 19.9774L67.5362 22.7344C65.5535 23.2594 62.6929 23.4022 61.2727 21.6465C60.5255 20.7233 60.2742 19.26 60.2084 18.0949C60.0557 15.395 60.3298 12.5506 60.2118 9.8365H57.9355V7.23828H60.2118V3.55222L63.8365 2.71387H63.8356Z" fill="white"/>
<path d="M56.1653 0.869873H52.4563V22.7435H56.1653V0.869873Z" fill="white"/>
<path d="M127.981 22.6594H124.187C124.165 22.5981 124.272 22.5595 124.272 22.5334V1.24701C124.272 1.21761 124.122 1.15377 124.314 1.03784H127.854L127.981 1.16385V22.6603V22.6594Z" fill="white"/>
<path d="M121.575 1.03784V22.6594H117.866V1.16301L117.993 1.03784H121.575Z" fill="white"/>
<path d="M115.337 22.6595H111.545V7.28103L111.67 7.15503H115.211L115.337 7.28103V22.6595Z" fill="white"/>
<path d="M74.6244 12.6874L73.7001 13.4846C72.2074 15.7661 72.3778 20.3392 74.7172 22.0235L75.8895 22.6585C73.7381 22.5208 71.2451 21.5615 70.4094 19.4345C69.9287 18.2106 69.8561 16.607 70.3967 15.3948C71.1026 13.8096 72.9943 12.9612 74.6253 12.6865L74.6244 12.6874Z" fill="white"/>
<path d="M78.418 22.7427L79.204 22.3941C80.9893 21.3852 81.0855 18.5442 80.9497 16.7482C80.8772 15.7923 80.6486 15.1362 79.8677 14.5541C79.7437 14.4616 79.6459 14.4129 79.8854 14.4516C81.5755 14.7246 83.4899 16.0745 83.7041 17.8646C84.0895 21.0819 81.2179 22.573 78.418 22.7427Z" fill="white"/>
<path d="M75.8888 3.72021L75.0041 4.22255C73.5451 5.32216 73.411 7.79857 73.5257 9.46351C73.6058 10.6345 73.7644 11.1411 74.6533 11.8626C74.7283 11.9231 74.924 12.029 74.6693 12.0147C72.3366 11.3049 70.38 10.0238 70.8422 7.29119C71.2563 4.84334 73.6396 3.8479 75.8888 3.72021Z" fill="white"/>
<path d="M75.3827 15.536C74.8691 14.953 75.2098 13.9559 75.6382 13.4006C77.244 11.3215 83.2815 10.9813 84.0844 9.14332C84.14 9.01564 84.1561 8.88459 84.1502 8.74683C84.5086 9.05008 84.3602 9.77251 84.2151 10.195C83.3633 12.6647 78.3066 13.0587 76.2522 14.3456C75.828 14.6119 75.3625 14.9883 75.3827 15.5351V15.536Z" fill="white"/>
<path d="M112.956 1.05806C116.265 0.532202 116.493 5.43799 112.942 4.96925C110.819 4.68952 110.843 1.39323 112.956 1.05806Z" fill="white"/>
<path d="M78.1658 3.80243C78.1464 3.64702 78.3378 3.73607 78.4222 3.75707C79.4469 4.00404 80.7228 4.68026 81.072 5.73198C81.8968 8.21512 78.0444 8.43437 78.3412 6.11588C78.4466 5.29181 79.7024 4.44757 78.1658 3.80327V3.80243Z" fill="white"/>
</svg>
