<svg width="22" height="23" viewBox="0 0 22 23" fill="none" xmlns="http://www.w3.org/2000/svg">
<path opacity="0.5" d="M11 6.00977C14.0762 6.00977 16.6152 8.54883 16.6152 11.625C16.6152 14.75 14.0762 17.2402 11 17.2402C7.875 17.2402 5.38477 14.75 5.38477 11.625C5.38477 8.54883 7.875 6.00977 11 6.00977ZM11 15.2871C13.002 15.2871 14.6133 13.6758 14.6133 11.625C14.6133 9.62305 13.002 8.01172 11 8.01172C8.94922 8.01172 7.33789 9.62305 7.33789 11.625C7.33789 13.6758 8.99805 15.2871 11 15.2871ZM18.1289 5.81445C18.1289 5.08203 17.543 4.49609 16.8105 4.49609C16.0781 4.49609 15.4922 5.08203 15.4922 5.81445C15.4922 6.54688 16.0781 7.13281 16.8105 7.13281C17.543 7.13281 18.1289 6.54688 18.1289 5.81445ZM21.8398 7.13281C21.9375 8.93945 21.9375 14.3594 21.8398 16.166C21.7422 17.9238 21.3516 19.4375 20.082 20.7559C18.8125 22.0254 17.25 22.416 15.4922 22.5137C13.6855 22.6113 8.26562 22.6113 6.45898 22.5137C4.70117 22.416 3.1875 22.0254 1.86914 20.7559C0.599609 19.4375 0.208984 17.9238 0.111328 16.166C0.0136719 14.3594 0.0136719 8.93945 0.111328 7.13281C0.208984 5.375 0.599609 3.8125 1.86914 2.54297C3.1875 1.27344 4.70117 0.882812 6.45898 0.785156C8.26562 0.6875 13.6855 0.6875 15.4922 0.785156C17.25 0.882812 18.8125 1.27344 20.082 2.54297C21.3516 3.8125 21.7422 5.375 21.8398 7.13281ZM19.4961 18.0703C20.082 16.6543 19.9355 13.2363 19.9355 11.625C19.9355 10.0625 20.082 6.64453 19.4961 5.17969C19.1055 4.25195 18.373 3.4707 17.4453 3.12891C15.9805 2.54297 12.5625 2.68945 11 2.68945C9.38867 2.68945 5.9707 2.54297 4.55469 3.12891C3.57812 3.51953 2.8457 4.25195 2.45508 5.17969C1.86914 6.64453 2.01562 10.0625 2.01562 11.625C2.01562 13.2363 1.86914 16.6543 2.45508 18.0703C2.8457 19.0469 3.57812 19.7793 4.55469 20.1699C5.9707 20.7559 9.38867 20.6094 11 20.6094C12.5625 20.6094 15.9805 20.7559 17.4453 20.1699C18.373 19.7793 19.1543 19.0469 19.4961 18.0703Z" fill="white"/>
</svg>
