<svg width="81" height="72" viewBox="0 0 81 72" fill="none" xmlns="http://www.w3.org/2000/svg">
<g clip-path="url(#clip0_5012_394)">
<path d="M0 42.4307C0.160363 42.1552 0.229485 42.1056 0.514268 41.9844C2.66811 41.0559 5.18969 40.7776 7.44859 39.9014C8.04028 39.6727 8.55731 39.4496 9.04393 39.0776C9.24024 38.9288 10.1471 38.7718 10.501 38.6423C11.2171 38.3833 11.8835 37.9755 12.6079 37.7331C12.6245 37.6173 12.4558 37.6697 12.3756 37.6669C11.8254 37.6449 11.2973 37.7303 10.7554 37.7937C10.7001 37.5347 10.4651 37.3005 10.7665 37.1241C11.1148 36.9203 12.3452 36.653 12.7931 36.5648C13.7636 36.372 14.7506 36.3003 15.7239 36.2122C15.6105 36.0248 15.3423 36.0716 15.1681 35.9394C14.911 35.7438 14.8336 35.2423 15.0907 35.0191C15.2483 34.8814 16.6639 34.4405 16.957 34.3661C17.2501 34.2918 17.5432 34.2366 17.8335 34.1815C18.5938 34.0383 19.4565 34.1926 19.9044 33.4349C19.6141 33.3743 18.7763 33.6636 18.5745 33.6057C18.2676 33.5175 18.027 33.0271 18.1266 32.7185L21.1901 31.1783L21.4693 30.7265C21.9172 31.0185 22.2435 30.6769 22.6886 30.586C22.708 30.3821 22.5504 30.1975 22.5863 29.9908C22.6389 29.6822 22.9292 29.572 22.9789 29.4508C23.0508 29.2745 22.9706 29.0816 23.1172 28.9328C23.2527 28.7978 23.7918 28.6848 24.0213 28.5774C24.9558 28.1283 25.9457 27.3981 26.8525 26.9022C27.7594 26.4062 27.9723 25.7615 28.6304 25.103C28.8073 24.9239 29.2884 24.5162 29.5179 24.4776C29.8829 24.417 30.6294 24.4941 31.0856 24.4418C31.3427 24.4115 31.6717 24.2544 31.8902 24.2461C32.1335 24.2406 32.316 24.4666 32.551 24.5024C32.6754 24.5217 33.6624 24.5713 33.7122 24.541C33.7979 24.4886 33.7647 24.4418 33.7509 24.3701C33.6735 23.9651 33.3721 23.4967 33.3196 23.009C33.2588 22.469 33.3666 21.8932 33.3555 21.3724C33.3528 21.2236 33.2367 21.0611 33.2477 20.904C33.256 20.7663 33.8228 19.9121 33.7758 19.8763C32.9463 19.7716 31.8459 19.9314 31.0662 19.6972C30.2008 19.4382 30.0294 18.5621 31.0275 18.4271C32.6864 18.2011 34.655 18.4904 36.3278 18.6199C36.6762 18.6475 37.0301 18.8018 37.3867 18.7467C37.5278 18.7246 37.6301 18.6089 37.7821 18.6172C38.0475 18.631 38.125 18.9506 38.371 19.0938C38.5812 19.2151 39.1203 19.4134 39.3443 19.3115C39.4964 19.2426 40.0161 18.6227 40.2069 18.4519C40.9562 17.7934 42.4188 16.7932 42.5875 15.7242C42.6234 15.4982 42.4271 15.2888 42.7313 15.0794L42.5986 14.95C42.8087 14.6662 43.417 14.3466 43.3976 13.9608C43.3976 13.9388 43.1183 13.8892 43.2953 13.5916C43.3091 13.5668 43.7017 13.2362 43.7294 13.2252C43.8566 13.1701 43.981 13.272 43.992 13.2637C44.0003 13.2555 43.992 13.1177 44.0556 13.0295C44.1773 12.8615 44.5036 12.6576 44.592 12.5061C44.733 12.2636 44.6363 11.7125 44.7994 11.6189C44.8851 11.5693 45.0123 11.7291 45.1201 11.583C45.3385 11.2882 45.1809 10.8584 45.4464 10.5994C45.51 10.5361 45.6095 10.5443 45.6759 10.4837C46.2593 9.97123 46.8233 9.77561 47.4592 9.34579C47.52 9.30446 47.65 9.31824 47.6887 9.27966C47.7744 9.19425 47.6638 8.88842 47.9707 8.96281C47.8021 8.57157 48.0315 8.75341 48.2085 8.57157C48.3163 8.46136 48.2804 8.33461 48.3412 8.24094C48.4076 8.13899 48.6951 8.02327 48.7698 7.86898L48.9688 7.97368C48.8942 7.64305 49.3089 7.84418 49.2343 7.5108C49.5301 7.72571 49.0601 8.2244 49.4969 8.46962L49.3006 8.70106C49.7098 8.74239 49.873 8.73412 50.0306 8.33737L49.6988 8.43656C49.6545 8.07562 49.9891 8.14726 50.1882 8.03154C50.296 7.97092 50.3485 7.85245 50.4785 7.79183C50.8324 7.63203 51.0231 7.90755 51.2305 7.48049C51.2941 7.34824 51.2195 7.16364 51.46 7.04792L51.5595 7.31242C51.9466 7.36477 52.2425 7.06996 52.4885 6.81648C52.3448 6.65116 51.8194 6.97904 51.7586 6.91566V6.65116C52.1236 6.74208 52.7235 6.34533 52.8867 6.81648C52.5825 7.23252 52.9447 7.02312 53.0194 7.37855L53.1521 7.34548V6.98179C53.3484 7.21599 53.4977 7.32895 53.8101 7.38406C53.8931 7.8001 53.318 7.88 53.0194 7.97368C53.3346 8.31257 53.7438 7.7505 53.9512 7.54662C54.0175 7.48049 54.1475 7.47773 54.1972 7.42814C54.388 7.23252 54.1198 6.75311 54.6313 6.57126C55.0654 6.41697 55.4276 6.67596 55.1705 7.11404C55.3281 7.26007 55.5354 7.25732 55.74 7.24354L55.5852 7.09476C55.4359 6.73382 56.3041 6.74484 56.5336 6.68147C56.7907 6.54095 56.6469 6.33706 56.6995 6.25165C56.8571 5.98715 57.7639 5.7006 57.7335 6.21032C57.7197 6.4335 57.3713 6.60157 57.305 6.84954L57.0368 7.77254C57.1999 7.69815 57.4791 7.70917 57.6146 7.63754C57.681 7.60448 58.1068 7.1168 58.2423 7.05894C58.6653 6.87434 58.7344 7.15262 58.8256 7.16088C58.8754 7.16639 59.5196 6.72831 59.6911 6.71453C59.7574 6.81923 59.7961 6.99006 59.7629 7.11129C59.7076 7.31242 59.5279 7.30415 59.4588 7.43916C59.6717 7.43916 59.9371 7.41987 60.139 7.3565C60.2744 7.31242 60.4956 7.21874 60.6698 7.15813C61.1039 7.00659 60.9574 6.89913 61.1786 6.6732C61.2781 6.57401 62.055 5.93204 62.1324 5.89898C62.3177 5.81908 62.3758 6.03674 62.5306 6.03399C62.7435 6.03399 62.8541 5.78602 63.0697 5.7805C63.2329 5.77499 64.0513 5.97888 63.7057 6.21583L63.3075 6.31227C63.6476 6.38941 64.0153 6.86607 64.3637 6.74208C64.4494 6.71178 65.0494 6.26543 65.0964 6.31227L65.1628 6.70902L64.9637 6.77515C65.3452 6.89087 66.3212 6.97628 65.6936 7.43641L65.9203 7.49978L66.0918 7.30415C66.2576 7.49978 66.3627 7.71469 66.4899 7.91857C66.5977 8.0894 66.8963 7.89102 66.8217 7.70091L67.0539 7.83041C67.3747 7.57417 67.0069 7.3014 67.1203 6.96801L66.5563 6.6732C66.5894 6.36737 66.8576 6.52442 66.9544 6.47758C67.0595 6.42799 67.1286 6.18002 67.253 6.11113C67.4023 6.23236 67.5378 6.40319 67.5406 6.60432C67.5406 6.73933 67.2281 7.52733 67.5737 7.49151L67.9415 7.29313L67.8806 7.0369L68.3645 7.16088C68.7377 6.91566 69.0695 6.36737 69.5092 6.77239C69.534 6.80821 69.2907 7.13057 69.6059 7.10302C69.5589 6.93771 69.6695 6.73933 69.664 6.60432C69.6585 6.42248 69.4483 6.30951 69.5727 6.04776C69.8216 5.52427 69.8879 6.4335 69.9377 6.47483C70.2308 6.72004 70.2667 6.54371 70.5349 6.44452L70.2695 6.84127L70.6013 6.9074C70.4243 6.4886 70.828 6.21032 71.2344 6.24063C71.522 6.26267 71.4086 6.40319 71.5054 6.50513C71.6022 6.60708 71.8538 6.68147 71.7985 6.87434C71.7017 7.19394 71.2178 6.77515 71.1764 6.78066C71.0188 6.80821 70.8778 7.26834 70.604 7.14159C70.4603 7.07547 70.3414 6.80546 70.2059 7.23803C70.2197 7.25731 70.6815 7.37855 70.5377 7.50253L70.1755 7.43641C69.9571 7.56866 70.2474 7.62376 70.2557 7.73397C70.2861 8.1142 69.6391 8.26022 69.3958 8.38145C69.2271 8.46411 69.1193 8.66249 68.8815 8.62943L69.0474 8.89117C69.1359 8.81954 69.4234 8.57708 69.5119 8.58259C69.5755 8.5881 69.6529 8.70933 69.7359 8.72586C69.9515 8.7727 70.4271 8.59912 70.7008 8.7479C71.0768 8.20512 70.9911 8.5385 71.251 8.61289C71.2897 8.62392 71.8676 8.69555 71.9008 8.6928C72.0639 8.67626 72.1054 8.50268 72.2022 8.4586C72.2851 8.42003 72.3819 8.48891 72.4676 8.46136C72.8049 8.35666 73.051 7.95164 73.5127 8.24369L73.5956 8.69004C74.3062 8.72861 73.8334 8.38972 73.8583 8.13073C73.8998 7.73122 74.3947 7.91857 74.1265 8.35941L74.5191 8.42278C74.8094 8.04531 74.309 7.25731 74.7237 7.00383C74.8426 6.92944 75.3541 7.04516 75.4758 7.1168C75.6334 7.21048 75.5974 7.34273 75.6693 7.41987C75.8573 7.62101 76.3495 7.21048 76.2499 7.10578C75.7135 7.02036 75.885 6.68973 76.3827 6.77515C76.355 6.50238 76.1974 6.24339 76.4822 6.05052C76.6564 6.17726 76.6564 6.38115 76.7808 6.54646C76.8582 6.65116 77.1071 6.78892 77.1153 6.82474C77.1458 6.94597 77.0518 7.42538 76.9965 7.55213C76.8693 7.83592 76.4905 7.8552 76.4186 8.03154C76.3854 8.10868 76.6343 8.50819 76.2969 8.48615C75.8822 8.4586 76.1863 7.9599 76.0177 7.90204C75.8877 7.85796 75.8905 8.10042 75.7827 8.19685C75.6278 8.33737 75.5007 8.30982 75.4011 8.13348C75.7937 7.72846 75.3984 7.26007 74.9007 7.36477L74.7901 7.76703L75.1882 7.63478C75.1302 8.06185 75.1219 8.34013 75.2629 8.75066C75.4924 8.78096 75.7163 8.8526 75.9513 8.8278C76.1006 8.81127 76.2472 8.69831 76.3384 8.70657C76.4407 8.71484 76.9356 9.0372 77.2287 9.07577C77.4388 9.10333 77.7264 9.0124 77.7983 9.03169C77.9338 9.07026 77.9227 9.28242 77.9918 9.34028C78.0526 9.38987 78.2821 9.40365 78.3734 9.48906C78.3153 9.13363 78.8545 8.97659 78.8213 8.73964C78.8102 8.65698 78.7273 8.56881 78.7079 8.46136C78.6858 8.34012 78.7383 8.1142 78.6941 8.04531C78.6692 8.00674 78.2517 7.92959 78.3042 7.64029L78.1715 7.67336L78.2959 7.99296L78.0388 8.26573C78.2407 8.41176 78.4314 8.37319 78.3706 8.69555C78.1881 8.71208 77.8978 8.68453 77.754 8.56605C77.6103 8.44758 77.7043 8.23267 77.4084 8.22716C77.2508 8.22716 77.2425 8.56605 77.0766 8.62943C76.7753 8.45033 76.6315 7.84418 77.0766 7.83041C77.2591 7.82489 77.4941 8.00399 77.6103 7.76979C77.754 7.48049 77.19 7.07547 77.4084 6.71178C77.5301 6.57126 77.6766 6.61534 77.8342 6.65392L77.8397 7.17741C77.9669 7.30691 78.4065 6.68147 78.6747 6.9074C78.8379 7.04516 78.7936 7.74775 78.8655 7.97643C79.0563 7.97092 79.8028 8.57708 79.8222 8.67626C79.8692 8.92975 79.3908 9.24109 79.1669 9.29619C79.4738 9.69295 79.1254 9.82796 78.8351 10.0566L79.0978 10.1889L78.9761 10.3349C78.9374 10.5305 79.3632 10.6049 79.4544 10.6821C79.5236 10.7399 79.4655 10.9108 79.6259 10.8887L79.4296 11.1835C79.7669 11.2772 79.4213 11.4591 79.2139 11.404C79.0839 11.3709 78.9761 11.1257 78.8351 11.0816L78.9678 11.4783C78.5724 11.1725 78.6001 11.6354 78.3982 11.8007C78.3623 11.831 77.7789 12.1231 77.7319 12.1341C77.5937 12.1672 77.696 11.9467 77.508 12.0074C77.2066 12.2856 77.9918 12.8422 78.39 12.721C78.5005 12.6879 78.5669 12.5088 78.6664 12.5364C78.8185 12.9717 79.3936 12.9469 79.7613 13.1976L79.6286 13.2637C79.5595 13.4373 79.7448 13.3684 79.7613 13.4373C79.8056 13.6137 79.7558 13.9746 79.8249 14.1868C79.4683 14.2501 79.1807 14.0077 78.8462 13.9388C78.6996 13.9085 77.6794 13.8148 77.6379 13.8589C77.5798 14.724 76.9273 13.4483 76.5071 14.1206C76.7006 14.1454 76.8112 14.173 76.7725 14.3851L77.237 14.2529L77.0379 14.7158C77.2591 14.724 77.096 14.5064 77.3725 14.4237C77.5826 14.3603 77.7927 14.4375 77.9337 14.2556C78.072 14.7406 78.777 14.7323 78.4978 15.2448L78.6305 14.9803C78.9263 15.129 79.1005 14.9169 79.3273 14.9086C79.6397 14.8976 79.977 14.9279 80.2867 14.7461C80.4 14.6799 80.4332 14.3245 80.6876 14.5174V14.7819C80.4194 14.9555 80.3143 15.1263 80.1235 15.377L79.8913 15.1456C79.5236 15.1814 79.9964 15.7297 79.8913 15.8399C79.7005 16.041 79.6618 15.4321 79.3355 15.5065C79.2084 15.5341 79.2222 16.0328 79.0646 15.9721L78.5669 15.5754L78.6333 16.0383C78.1549 16.1099 77.801 15.7572 77.3725 15.6415C77.3476 16.1623 78.3098 16.0768 77.9752 16.5893C77.6849 17.0329 76.9107 16.1457 77.0988 15.7187C76.4379 15.3605 75.7993 15.6388 75.0914 15.5726C74.9919 15.6002 75.0859 16.0107 74.7846 15.9088C74.768 15.9997 74.8094 15.9639 74.8675 15.9887C75.7108 16.3772 77.0296 16.5893 77.7927 17.1073C78.0913 17.3084 78.1466 17.4572 78.1024 17.8237L78.4701 17.6887C78.625 17.6887 78.7217 17.9862 78.766 18.1185L77.3448 18.4877C77.3061 18.4849 77.2591 18.3224 77.1734 18.2562C76.7559 17.9284 74.8896 17.7548 74.4694 18.1047C74.3643 18.1929 74.4168 18.5345 74.0325 18.4105C73.6731 18.2948 74.2841 17.9091 74.1873 17.8237H73.4574L73.5238 18.1543C73.1422 17.9394 72.6473 18.3224 72.3763 18.1571C72.3127 18.1185 72.2132 17.8898 72.0971 17.8898H70.5709L70.4796 18.0441C70.5681 18.2728 70.8391 18.4078 70.8031 18.6806C70.3663 18.5648 70.0207 18.3527 69.5451 18.3527C69.487 18.5015 69.4456 18.9506 69.3101 19.0112C68.8871 19.1958 69.3211 18.2259 69.2741 18.1598C68.8373 17.9311 68.4143 17.9339 67.9304 17.9587L67.7866 17.6914C67.6346 17.9366 67.4355 17.7383 67.2696 17.7686C67.0816 17.8044 66.8963 18.1736 66.6226 18.0882C66.736 18.2507 66.9019 18.4243 67.065 18.54C67.4548 18.8156 68.3617 18.9616 67.7811 19.6724C67.112 20.4907 65.3674 19.1958 64.6485 18.8955C64.3112 18.7963 64.0762 19.0911 63.7693 19.1462C63.6642 19.2922 64.2116 19.5485 64.2669 19.6752C64.3112 19.7771 64.2199 20.094 64.4301 20.2373L64.2033 20.342L64.0983 20.2042C64.2891 20.6423 63.8411 20.7525 63.4706 20.7332C63.0117 20.7112 62.0689 20.3392 61.7537 20.3557C61.5546 20.3668 60.4625 20.8627 60.2053 20.9867C60.0173 21.0776 59.8127 21.1603 59.6523 21.2953L60.9021 21.67C61.0569 22.1742 61.0569 22.6205 60.432 22.7418C60.1721 22.7914 59.2183 22.6867 58.8892 22.6509C58.3805 22.5985 57.8579 22.5103 57.3603 22.3891L57.2911 22.5902C56.9925 22.6784 56.1133 22.3478 55.9668 22.6509C55.8921 22.8024 55.964 22.965 55.8313 23.1771C55.5714 23.5987 55.1013 23.6786 54.6424 23.7116C54.153 23.7474 52.5964 23.5408 52.3226 23.7171C52.248 23.764 52.2342 23.899 52.1706 23.9128C52.0904 23.9293 51.9715 23.8632 51.8775 23.8797C51.6867 23.91 50.8655 24.326 50.6692 24.4473C50.5918 24.4941 50.0499 24.9074 50.0388 24.946C49.9891 25.092 50.0527 25.1967 50.108 25.3207C50.1411 25.3978 50.8683 26.3263 50.9236 26.3622C51.0812 26.4669 51.2139 26.2161 51.3936 26.3484C51.5817 26.4862 51.5568 26.9793 51.8858 27.2494C52.1042 27.4312 52.295 27.3954 52.4637 27.5001C52.613 27.591 52.8452 27.963 53.0139 28.1062C53.9401 28.8942 54.8719 29.7015 55.8009 30.4868C55.9889 30.6438 56.5501 30.9579 56.6303 31.0488C56.7271 31.1618 56.7354 31.3657 56.8349 31.5062C57.0893 31.8727 57.5096 32.2501 57.7916 32.6028C58.4717 33.4487 59.1049 34.3276 59.7795 35.1762C60.4514 34.9668 60.4846 35.5233 60.9325 35.8209C61.7758 36.3802 64.0485 37.2977 65.0577 37.6614C66.0309 38.0113 66.8936 38.0719 67.8806 38.2869C69.0778 38.5514 70.6621 38.9867 71.71 39.4964C71.9505 39.6149 72.6141 39.5708 72.7109 39.8877C72.7938 40.1604 72.6141 40.5324 72.4759 40.7693C71.9588 40.8217 71.3063 41.1826 70.8142 41.2184C69.1691 41.3369 67.571 41.5959 65.9203 41.8246C65.8208 41.8384 65.7544 41.8246 65.6908 41.9238C66.5756 43.0369 67.6069 44.0563 68.3977 45.2438C68.7543 45.7784 69.5396 46.795 68.7212 47.2607C68.3756 47.4563 67.9608 47.1808 67.6207 47.0072C66.9599 46.6738 66.3268 46.1724 65.6881 45.7921C65.6162 45.8831 66.2272 47.1147 66.2687 47.3626C66.3295 47.7098 66.1996 48.0817 66.2328 48.3242C66.2715 48.6273 66.6779 49.1646 66.7222 49.4924C66.7387 49.6192 66.6613 49.7376 66.6917 49.8451C66.7166 49.9333 66.8493 49.9856 66.8742 50.0738C66.9046 50.1785 66.8023 50.8948 66.7111 51.0216C66.3517 51.0932 65.2734 50.0242 65.0273 49.7266C64.4024 48.9634 64.0181 48.0349 63.4347 47.2497C63.7997 49.6026 64.372 51.9942 64.0319 54.3913C63.0614 54.2976 62.9232 53.1955 62.4946 52.5204L61.5795 49.1701C61.2311 51.4183 61.173 53.7245 60.515 55.9149C60.3242 56.0582 59.7463 55.1104 59.6855 54.923C59.4229 54.124 59.5528 52.9778 59.4533 52.1127C59.4422 52.0162 59.4229 51.7159 59.3206 51.6828C59.2487 52.4213 59.1436 53.1597 59.0551 53.8981C58.8837 55.3143 58.7455 56.7277 58.292 58.0971C58.1538 58.5131 58.0321 58.593 57.5593 58.4304C57.3022 57.692 57.5925 57.0363 57.6616 56.342C57.6948 56.0058 57.6367 55.6366 57.6699 55.2922C57.7446 54.5483 57.9105 54.1295 57.9271 53.3002C57.9685 51.2062 58.1787 49.0847 58.187 47.0182C58.1925 45.6323 58.1344 44.668 57.54 43.3703C57.081 42.3674 56.1824 41.7034 55.2064 41.1991C54.2304 40.6949 53.1383 40.604 52.2203 40.2073C51.9798 40.1026 51.6729 39.7747 51.5236 39.7113C51.2996 39.6176 51.554 40.2513 51.5512 40.3312C51.5429 40.728 51.2305 41.1661 50.7992 40.8933C50.6886 40.8244 49.9863 39.7664 49.8702 39.5736C49.3366 38.6974 49.0297 37.7744 48.402 36.9368C47.9458 36.5676 47.5505 35.7989 47.1551 35.4352C46.7929 35.1046 46.2703 35.3994 45.8169 35.347C45.2971 35.2864 44.6501 34.7905 44.7247 34.2201C44.2989 34.2036 44.3432 34.6444 44.2077 34.9282C44.0888 35.1762 43.1377 36.3417 42.9331 36.4353C42.6843 36.5511 41.8244 36.2397 41.7746 35.8733L39.618 38.9509C39.4908 39.0308 39.2088 38.8958 39.1176 38.7828L39.2199 38.1877C38.7941 38.1766 38.277 38.4935 38.125 37.9232C37.6936 38.2703 37.7351 38.78 37.5195 39.2374C37.3232 39.6535 36.9084 40.0309 36.6845 40.4552C36.56 40.6894 36.5186 40.9402 36.3997 41.1633C36.3444 41.268 35.9407 41.9623 35.902 41.9899C35.8274 42.0395 35.5066 42.0781 35.5675 41.9238L36.1647 41.0972C35.9352 40.998 35.6421 41.5876 35.5011 41.494L35.1776 40.9842C35.2716 40.5324 35.5647 40.1246 35.4983 39.6424C35.3435 39.7058 35.3131 39.9069 35.2108 40.0171C35.1085 40.1274 34.3205 40.8713 34.2569 40.8906C33.8394 41.0063 33.8588 40.4525 33.8394 40.2045C33.8311 40.1053 33.8919 40.0116 33.7399 40.0392L32.2662 41.6179C32.1169 41.6565 31.9565 41.4609 31.8985 41.3424C31.8653 41.2735 31.8653 40.9016 31.716 41.0283C31.6966 41.0449 31.4644 41.4471 31.4616 41.4719C31.4201 41.7282 31.915 42.3536 31.1823 42.1883C31.0635 42.1084 31.0386 41.3397 30.657 41.7888C30.657 41.8081 30.9833 42.0367 30.7538 42.0863C30.505 42.1414 30.5437 41.7943 30.3225 41.8218C30.4192 41.9293 30.4745 42.1222 30.5602 42.2131C30.6653 42.326 31.4893 42.7944 31.3842 42.9432L30.9197 43.1416L30.986 42.8826C30.7068 42.7834 30.516 42.6374 30.2589 42.8798L30.3252 42.4831H30.0598C30.0681 42.6732 30.0902 42.7944 29.9658 42.9515C29.8027 43.1554 29.7142 42.9928 29.576 43.0231C29.3078 43.081 29.3271 43.7753 29.2663 44.004L29.7253 43.9406C29.905 44.2492 29.7999 44.2382 29.7501 44.4531C29.728 44.5523 29.7446 44.6735 29.7142 44.7507C29.5428 45.2218 29.2718 44.7424 29.0976 44.9297C28.799 45.2549 29.0617 46.6325 28.3124 46.379C28.1797 46.3349 27.9336 45.2383 27.8368 44.9986C27.6765 44.6046 27.3696 44.2905 27.2258 43.9544C27.1235 43.7202 27.212 43.464 26.9465 43.373C26.8028 43.3234 26.5843 43.4144 26.612 43.2132C26.529 43.3207 26.0673 43.6375 26.0341 43.6926C25.9927 43.7615 26.0341 43.869 25.9484 43.9709C25.918 44.0095 25.4977 44.3291 25.4535 44.3319C24.9199 44.3622 24.9531 43.6403 24.9862 43.2794C24.7623 43.3813 24.6379 43.5962 24.4554 43.7422C24.2065 43.9406 24.0462 43.993 23.7946 44.274C23.5292 44.5688 23.6259 44.431 23.3633 44.6349C23.2029 44.7589 22.4315 45.5139 22.332 45.5139C21.7928 45.1309 22.1439 44.8361 22.332 44.4007C22.379 44.2905 22.3596 44.1473 22.4149 44.0205C22.4951 43.8359 22.7743 43.7037 22.8296 43.475C22.3596 43.599 21.9006 43.7615 21.4389 43.9076C21.2951 43.9516 21.1403 43.9241 20.9882 43.9875C20.7228 44.0977 20.1366 44.7369 19.838 44.9573C19.1883 45.434 18.5772 45.7701 18.5828 44.5991C18.4805 44.4917 16.7801 45.0537 16.4842 45.0565C15.7847 45.062 15.3119 44.1941 15.6575 43.5852L17.7201 42.6484C17.1312 42.6732 17.2169 42.3233 17.0234 42.0863C16.9073 41.9431 16.2713 42.1525 16.0999 42.2241C15.7432 42.3784 15.2041 42.8798 14.8004 43.1113C13.9101 43.6265 13.0143 43.8662 12.1212 44.2768C11.3968 44.6101 10.7388 45.2686 9.88722 45.3568L9.82363 45.4229L9.95081 45.5552C9.69091 45.9051 9.49184 45.6241 9.27618 45.6626C8.71215 45.7646 7.6532 46.9108 6.97303 46.2771C6.29287 45.6434 8.26147 44.5881 8.23106 44.1693C8.20894 43.8635 7.97392 43.9461 8.29465 43.5025C8.64579 43.0204 9.41443 42.6209 9.95358 42.3784C10.3573 42.1993 10.9019 42.1359 11.2144 41.8163L6.20993 42.2847C5.70119 42.6209 5.60995 42.3867 5.15098 42.417C4.551 42.4555 3.55564 42.7145 2.9446 42.8633C2.02942 43.0892 1.13637 43.4667 0.204601 43.5935L0 43.07V42.4087L0 42.4307ZM28.3345 43.9516L28.2018 43.9902L28.0774 44.4393L28.3318 44.6542L28.2654 45.0951L28.5364 45.208L28.6027 44.0178L28.3649 44.0784L28.3373 43.9516H28.3345Z" fill="white"/>
<path d="M44.5256 71.989C38.1 71.9173 31.3731 69.9776 25.8848 66.6603C25.2295 66.2636 24.3033 65.7153 23.7254 65.2414C23.037 64.6821 22.5255 63.9134 21.8812 63.31C21.5301 63.1143 21.2121 63.5469 20.8721 63.5221C20.3495 63.4863 18.3228 61.3014 17.8805 60.8137C15.2317 57.8876 13.3129 55.1655 11.7314 51.5341C11.4853 50.9692 9.87337 46.9383 10.031 46.6738C10.9766 46.0401 11.983 45.4257 13.1359 45.2714C13.3792 46.4258 13.1498 47.8999 13.6308 48.9772C14.3221 50.5284 16.31 53.4627 17.416 54.7935C17.8141 55.2729 19.0085 56.7167 19.4371 57.0115C19.8076 57.2677 20.2472 57.0776 20.6702 57.3697C21.4997 57.9483 22.4978 59.6758 23.4213 60.5134C27.5023 64.2137 33.6569 67.0709 39.1258 67.8093C45.6897 68.6965 53.2461 67.0681 59.1242 64.0842C60.6919 63.2879 62.1739 62.2933 63.7665 61.5383C62.4504 62.825 60.8882 63.9685 59.315 64.9383C53.4562 68.5449 47.0721 70.0217 40.1765 69.2751C38.8908 69.1345 36.5849 68.2418 35.4789 68.432C35.172 68.4843 34.5831 68.8039 34.9426 69.1318C44.3929 71.6032 54.6036 69.884 62.8292 64.7399C68.2704 61.3372 69.4898 57.4137 72.932 52.5232C73.8666 51.1952 75.0223 50.0407 75.9043 48.6741L74.9753 48.7072C75.8241 46.6242 76.4628 44.5165 76.6342 42.2599C77.0019 37.3831 76.507 29.1973 74.4361 24.7476C73.8472 23.4829 73.0648 22.2596 72.509 20.9812C72.274 20.4439 72.039 19.959 72.1219 19.3501L72.9846 19.6146L72.5864 18.7577L76.0757 18.5648C76.272 18.5731 76.6287 19.3694 76.7144 19.5732C76.8471 19.8956 77.0296 20.3475 77.0019 20.6753L75.9734 19.4851L76.9024 21.8325L76.0398 21.8987C76.5844 22.8051 76.9466 23.9045 77.2508 24.9239C77.5162 25.8139 77.9309 27.2163 77.9641 28.1172C77.989 28.8005 77.1955 28.8749 77.237 29.0981L77.7457 29.7842C78.1743 31.7845 78.647 33.7875 79.0037 35.8044C79.0701 36.1846 79.2304 36.7522 79.2304 37.1076C79.2304 37.5236 79.0673 38.0031 79.0203 38.4219C79.5401 38.6836 79.8249 38.5789 79.7392 39.2732C79.612 40.3064 79.0507 41.235 79.4046 42.3508C79.6286 43.0534 79.7281 42.417 80.1539 42.3646C80.3862 42.9983 80.1788 43.6926 80.0433 44.3374C79.659 46.1751 78.954 48.2966 78.2793 50.0517C78.1466 50.3989 77.3697 52.4984 77.0047 52.4157C76.8305 52.3413 76.872 51.8426 76.6729 51.8867C76.0232 52.4681 75.5089 53.1045 75.0582 53.8512C74.403 54.934 73.7366 56.8462 72.8214 57.6397C72.5311 57.8904 71.5938 58.3588 71.6602 58.7914C71.6989 59.0559 71.9173 59.1027 71.7321 59.5298C71.6049 59.8218 71.0298 60.5079 70.7975 60.7806C66.7055 65.5362 56.21 70.7684 49.989 71.4545C49.5854 71.4985 49.0766 71.5702 48.6785 71.5206C48.3522 71.4792 47.7523 71.1321 47.5532 71.1486C47.379 71.1652 46.779 71.6639 46.4666 71.7768C46.1929 71.876 45.7394 71.9669 45.4519 71.989C45.1643 72.011 44.8187 71.9917 44.5229 71.989H44.5256ZM18.3809 58.3671C18.1874 56.8186 17.1008 55.5512 15.9921 54.5318L18.3809 58.3671Z" fill="white"/>
<path d="M45.322 0.176392L45.4547 1.10215C45.7146 1.06082 45.9219 0.854181 46.1791 0.801832C47.039 0.625496 47.7302 1.16001 48.5707 1.16828C48.6896 1.06633 47.8988 0.570391 48.4684 0.504265C49.038 0.43814 50.0361 0.672335 50.6416 0.793566C51.731 1.00847 52.7982 1.34737 53.9014 1.49891C54.0313 1.56779 54.0341 2.33926 54.2525 2.48804C54.4544 2.6258 55.74 2.82418 56.1216 2.9399C57.9381 3.48268 59.7408 4.51039 61.4689 5.28186L61.5767 5.43339C60.8413 6.20486 59.68 6.19935 58.7012 6.40324C58.4524 5.6979 58.0708 5.15787 57.2358 5.20746C56.4009 5.25706 55.9944 5.91005 55.3778 6.37569C50.9844 4.69499 46.4058 4.54345 41.7829 5.21849C37.9701 5.77504 33.6016 6.79724 30.2146 8.63499C25.3623 11.269 20.3772 16.1926 17.2667 20.7277C16.4317 21.9456 16.2603 22.6316 15.6935 23.9211C15.5912 24.1553 15.0382 25.194 14.8225 25.2353C14.7617 25.2463 14.4603 25.0755 14.4216 25.0287C14.1534 24.7063 14.5378 24.541 14.6788 24.2985C15.5027 22.9182 16.1137 21.2347 16.9764 19.7772C18.8869 16.5536 22.2518 12.5006 25.2213 10.2055C25.965 9.63238 27.9447 8.99317 27.9419 7.95169C27.9419 7.84699 27.8479 7.329 27.7041 7.38962C25.9982 8.99041 23.955 10.1724 22.1329 11.6244C18.2786 14.6938 15.3783 19.7524 13.5065 24.2545C11.8918 28.1393 10.6752 32.4623 11.0208 36.7109C10.3821 36.8073 10.3462 37.1848 10.3158 37.7496C10.1692 37.8488 8.50202 38.0692 8.4329 38.0031C8.23106 35.3112 8.40802 32.5891 8.77022 29.9165C8.8504 29.3269 8.93334 28.7262 9.0467 28.1421C9.16836 27.5139 9.43379 25.6018 10.3987 26.2961L10.4872 26.2768L11.2171 25.048V26.2382C11.3167 26.2245 11.3416 26.1142 11.3858 26.0426C12.0024 25.0149 12.5249 23.7998 13.1083 22.7336C14.7285 19.7744 16.7303 16.2863 19.0141 13.8066C19.8132 12.9414 21.638 11.9468 22.0472 11.0761C22.5117 10.087 22.4951 9.07307 24.0241 9.7729C24.1153 8.48069 25.26 7.40615 26.2222 6.63744C29.9658 3.648 33.5214 3.73616 37.9093 2.5459C38.8964 2.27864 39.8807 1.97281 40.8484 1.63943C41.2051 1.51819 41.8161 1.18206 42.123 1.1242C43.1654 0.931328 44.863 1.73861 45.2584 0.181902H45.3247L45.322 0.176392Z" fill="white"/>
<path d="M63.8024 61.6403C63.4153 61.9048 63.0283 62.1693 62.6412 62.4338" stroke="white" stroke-width="2" stroke-linecap="round" stroke-linejoin="round"/>
<path d="M22.0637 11.583C21.6324 11.9357 21.2011 12.2883 20.7698 12.641" stroke="white" stroke-width="2" stroke-linecap="round" stroke-linejoin="round"/>
<path d="M11.2476 25.1388C11.1923 25.3372 11.137 25.5355 11.0817 25.7339" stroke="white" stroke-width="2" stroke-linecap="round" stroke-linejoin="round"/>
<path d="M45.3552 0.275513C45.322 0.47389 45.2888 0.672268 45.2556 0.870645" stroke="white" stroke-width="2" stroke-linecap="round" stroke-linejoin="round"/>
<path d="M75.7799 7.71467C75.5891 7.58793 75.5338 7.32342 75.249 7.27658C74.8592 7.21597 74.6933 7.34822 74.7541 7.74773C74.7652 7.81661 74.8177 7.87998 74.8509 7.94611" stroke="white" stroke-width="2" stroke-linecap="round" stroke-linejoin="round"/>
<path d="M36.231 40.8438C36.3831 41.0394 36.408 41.224 36.2006 41.4086C35.996 41.5932 36.0071 41.9596 35.667 42.034" stroke="white" stroke-width="2" stroke-linecap="round" stroke-linejoin="round"/>
<path d="M67.2862 6.72278C67.3913 7.11678 67.2724 7.55762 67.5516 7.91304" stroke="white" stroke-width="2" stroke-linecap="round" stroke-linejoin="round"/>
<path d="M79.6618 10.9879L79.3964 11.021" stroke="white" stroke-width="2" stroke-linecap="round" stroke-linejoin="round"/>
<path d="M69.8078 6.02844C69.7248 6.29295 69.8105 6.5299 69.9405 6.75583" stroke="white" stroke-width="2" stroke-linecap="round" stroke-linejoin="round"/>
<path d="M76.543 6.16077C76.5541 6.29302 76.5651 6.42527 76.5762 6.55752" stroke="white" stroke-width="2" stroke-linecap="round" stroke-linejoin="round"/>
<path d="M52.8535 6.88808C52.5438 6.70348 52.2342 6.73379 51.9245 6.88808" stroke="white" stroke-width="2" stroke-linecap="round" stroke-linejoin="round"/>
<path d="M78.7162 7.91309C78.7991 8.03432 78.8821 8.15555 78.965 8.27678" stroke="white" stroke-width="2" stroke-linecap="round" stroke-linejoin="round"/>
<path d="M74.121 8.01221C74.0214 8.30977 74.1458 8.54672 74.32 8.77265" stroke="white" stroke-width="2" stroke-linecap="round" stroke-linejoin="round"/>
<path d="M69.6087 18.1626C69.5091 18.4381 69.4096 18.7136 69.3101 18.9892" stroke="white" stroke-width="2" stroke-linecap="round" stroke-linejoin="round"/>
<path d="M78.7328 15.4845H78.5669" stroke="white" stroke-width="2" stroke-linecap="round" stroke-linejoin="round"/>
<path d="M49.3366 7.61548C49.3449 7.91029 49.1596 8.13071 49.038 8.37593" stroke="white" stroke-width="2" stroke-linecap="round" stroke-linejoin="round"/>
<path d="M66.1249 7.41711V7.71468" stroke="white" stroke-width="2" stroke-linecap="round" stroke-linejoin="round"/>
<path d="M70.04 6.9873C70.2751 7.08098 70.5654 6.92393 70.77 7.15262" stroke="white" stroke-width="2" stroke-linecap="round" stroke-linejoin="round"/>
<path d="M30.5243 41.5381C30.5796 41.6924 30.6238 41.8522 30.6957 41.9982C30.7178 42.0423 30.8229 42.0451 30.8893 42.0671" stroke="white" stroke-width="2" stroke-linecap="round" stroke-linejoin="round"/>
<path d="M77.6047 8.14453H77.3725" stroke="white" stroke-width="2" stroke-linecap="round" stroke-linejoin="round"/>
<path d="M50.3651 8.37592C50.1632 8.27673 49.9614 8.17203 49.8342 8.47511" stroke="white" stroke-width="2" stroke-linecap="round" stroke-linejoin="round"/>
<path d="M69.9736 7.35095C70.1727 7.40606 70.3718 7.46116 70.5708 7.51627" stroke="white" stroke-width="2" stroke-linecap="round" stroke-linejoin="round"/>
<path d="M49.038 8.50818C49.2039 8.5192 49.3698 8.53022 49.5356 8.54124" stroke="white" stroke-width="2" stroke-linecap="round" stroke-linejoin="round"/>
<path d="M56.1714 7.25174C55.9944 7.19664 55.8175 7.14153 55.6405 7.08643" stroke="white" stroke-width="2" stroke-linecap="round" stroke-linejoin="round"/>
<path d="M53.2516 7.08643C53.3069 7.26276 53.3622 7.4391 53.4175 7.61543" stroke="white" stroke-width="2" stroke-linecap="round" stroke-linejoin="round"/>
<path d="M79.2637 11.0541C79.2471 11.2938 79.3715 11.3792 79.5955 11.3516" stroke="white" stroke-width="2" stroke-linecap="round" stroke-linejoin="round"/>
<path d="M79.0314 15.4845C79.0756 15.6608 79.1199 15.8372 79.1641 16.0135" stroke="white" stroke-width="2" stroke-linecap="round" stroke-linejoin="round"/>
<path d="M79.8609 8.77271C79.706 8.79475 79.5512 8.81679 79.3964 8.83883" stroke="white" stroke-width="2" stroke-linecap="round" stroke-linejoin="round"/>
<path d="M80.7235 14.724C80.4194 15.0271 79.9853 15.0574 79.6286 15.253" stroke="white" stroke-width="2" stroke-linecap="round" stroke-linejoin="round"/>
<path d="M66.9544 7.81384C66.9986 7.96814 67.0429 8.12243 67.0871 8.27672" stroke="white" stroke-width="2" stroke-linecap="round" stroke-linejoin="round"/>
<path d="M29.8939 44.3484C29.7391 44.3925 29.5843 44.4366 29.4294 44.4806" stroke="white" stroke-width="2" stroke-linecap="round" stroke-linejoin="round"/>
<path d="M29.6285 24.5437C29.6395 24.676 29.6506 24.8082 29.6617 24.9405" stroke="white" stroke-width="2" stroke-linecap="round" stroke-linejoin="round"/>
<path d="M57.1667 7.64852C57.034 7.62648 56.9013 7.60444 56.7686 7.5824" stroke="white" stroke-width="2" stroke-linecap="round" stroke-linejoin="round"/>
<path d="M67.3194 6.22681C67.3083 6.3811 67.2973 6.53539 67.2862 6.68969" stroke="white" stroke-width="2" stroke-linecap="round" stroke-linejoin="round"/>
<path d="M29.3962 44.5798C29.4405 44.7341 29.4847 44.8884 29.529 45.0427" stroke="white" stroke-width="2" stroke-linecap="round" stroke-linejoin="round"/>
<path d="M70.5377 6.59058C70.3939 6.67874 70.2502 6.76691 70.1064 6.85508" stroke="white" stroke-width="2" stroke-linecap="round" stroke-linejoin="round"/>
<path d="M72.3293 8.54126C72.3515 8.67351 72.3736 8.80576 72.3957 8.93801" stroke="white" stroke-width="2" stroke-linecap="round" stroke-linejoin="round"/>
<path d="M77.1403 8.24365V8.67347" stroke="white" stroke-width="2" stroke-linecap="round" stroke-linejoin="round"/>
<path d="M14.7977 24.8743C14.8198 25.0065 14.8419 25.1388 14.864 25.271" stroke="white" stroke-width="2" stroke-linecap="round" stroke-linejoin="round"/>
<path d="M77.2729 14.3934C77.1513 14.4816 77.0296 14.5698 76.908 14.6579" stroke="white" stroke-width="2" stroke-linecap="round" stroke-linejoin="round"/>
<path d="M66.8549 6.72276C67.076 6.71174 67.2972 6.70072 67.5184 6.6897" stroke="white" stroke-width="2" stroke-linecap="round" stroke-linejoin="round"/>
<path d="M67.9829 7.15259C68.0603 7.2628 68.1377 7.37301 68.2152 7.48322" stroke="white" stroke-width="2" stroke-linecap="round" stroke-linejoin="round"/>
<path d="M51.5595 7.15259C51.4019 7.37025 51.5761 7.5521 51.6259 7.74772" stroke="white" stroke-width="2" stroke-linecap="round" stroke-linejoin="round"/>
<path d="M64.3333 19.8157C64.2116 19.8377 64.09 19.8598 63.9683 19.8818" stroke="white" stroke-width="2" stroke-linecap="round" stroke-linejoin="round"/>
<path d="M78.0029 14.3604C77.9697 14.4816 77.9365 14.6028 77.9033 14.724" stroke="white" stroke-width="2" stroke-linecap="round" stroke-linejoin="round"/>
<path d="M51.2277 40.3808C51.3051 40.3753 51.3826 40.3698 51.46 40.3643" stroke="white" stroke-width="2" stroke-linecap="round" stroke-linejoin="round"/>
<path d="M79.7945 13.3024C79.695 13.3134 79.5954 13.3244 79.4959 13.3354" stroke="white" stroke-width="2" stroke-linecap="round" stroke-linejoin="round"/>
<path d="M9.98674 45.6378C9.79873 45.6378 9.6356 45.602 9.55542 45.4064" stroke="white" stroke-width="2" stroke-linecap="round" stroke-linejoin="round"/>
<path d="M22.4287 45.1419C22.3734 45.1364 22.3181 45.1309 22.2628 45.1254" stroke="white" stroke-width="2" stroke-linecap="round" stroke-linejoin="round"/>
</g>
<defs>
<clipPath id="clip0_5012_394">
<rect width="81" height="72" fill="white"/>
</clipPath>
</defs>
</svg>
